Coordinates
version=1
nRows=10
nColumns=22
inDegrees=yes

Units are S.I. units (second, meters, Newtons, ...)
If the header above contains a line with 'inDegrees', this indicates whether rotational values are in degrees (yes) or radians (no).

endheader
time	pelvis_tilt	pelvis_list	pelvis_rotation	pelvis_tx	pelvis_ty	pelvis_tz	hip_flexion_r	hip_adduction_r	hip_rotation_r	knee_angle_r	ankle_angle_r	subtalar_angle_r	hip_flexion_l	hip_adduction_l	hip_rotation_l	knee_angle_l	ankle_angle_l	subtalar_angle_l	lumbar_extension	lumbar_bending	lumbar_rotation
      3.67000000	     -2.12919282	     -1.90960487	     19.75095571	     -0.09162559	      0.93844770	     -0.48949930	     22.57737853	      5.60807063	     -2.32122208	    -64.14368986	      4.87495049	      3.58922327	     19.28079087	     -4.51657128	      7.32721540	    -26.74800324	      9.92750469	      5.20466208	     -6.84733248	     -2.32529340	      0.50828799
      3.68000000	     -1.91549636	     -1.84696029	     19.09408536	     -0.08429402	      0.93964450	     -0.49190959	     23.65192935	      5.03676685	     -3.31812965	    -63.98396703	      5.66608804	      2.14274234	     18.30681263	     -4.68083826	      6.69794877	    -26.60231248	     10.28655312	      5.01360120	     -7.14322625	     -2.21479436	      0.03935869
      3.69000000	     -1.70601815	     -1.81330030	     18.41666931	     -0.07692325	      0.94076972	     -0.49411183	     24.64255743	      4.53083456	     -4.29119909	    -63.55085314	      6.37302714	      0.98426350	     17.32054107	     -4.87948741	      6.03352363	    -26.41759397	     10.68648384	      4.83711482	     -7.41363405	     -2.08775179	     -0.38563508
      3.70000000	     -1.51435281	     -1.76362931	     17.71938982	     -0.06949691	      0.94182674	     -0.49612822	     25.54695394	      4.03794554	     -5.23196977	    -62.86989025	      7.00612837	      0.10178195	     16.29911401	     -5.06062704	      5.33109102	    -26.15930183	     11.05798579	      4.69543303	     -7.65746089	     -1.99766281	     -0.80925057
      3.71000000	     -1.34014657	     -1.70197809	     17.01280249	     -0.06205914	      0.94277600	     -0.49800435	     26.37158829	      3.54257901	     -6.17863487	    -61.96436022	      7.56557784	     -0.60456787	     15.27049985	     -5.21858485	      4.60173387	    -25.86788555	     11.42237202	      4.57819489	     -7.87957145	     -1.93270263	     -1.21241308
      3.72000000	     -1.18828928	     -1.62796965	     16.30964366	     -0.05459389	      0.94360479	     -0.49976063	     27.11647155	      3.03904319	     -7.14398977	    -60.84371052	      8.04376664	     -1.18838065	     14.24805095	     -5.34801905	      3.85074604	    -25.55277550	     11.77364518	      4.48508051	     -8.07185172	     -1.89569330	     -1.60998286
      3.73000000	     -1.05273523	     -1.54258774	     15.61266838	     -0.04712039	      0.94429309	     -0.50139367	     27.78560751	      2.52924351	     -8.13448341	    -59.53802595	      8.45097988	     -1.68757311	     13.23814529	     -5.44985006	      3.09026239	    -25.23291985	     12.11063025	      4.41434881	     -8.24453085	     -1.88038082	     -2.00861035
      3.74000000	     -0.94566310	     -1.45169934	     14.93306396	     -0.03965660	      0.94481484	     -0.50292391	     28.39170728	      2.01805204	     -9.14679389	    -58.05466569	      8.80644528	     -2.08547270	     12.26624864	     -5.52239520	      2.33283740	    -24.91947687	     12.44394753	      4.36008177	     -8.38639047	     -1.87772486	     -2.41421382
      3.75000000	     -0.85630845	     -1.35985801	     14.27466904	     -0.03218323	      0.94517970	     -0.50432374	     28.92457816	      1.52396905	    -10.17045476	    -56.40570702	      9.11704750	     -2.38830804	     11.32048527	     -5.57459157	      1.59929468	    -24.61059549	     12.77096911	      4.31919629	     -8.50735952	     -1.88513914	     -2.82679085
      3.76000000	     -0.78882200	     -1.26774291	     13.64049386	     -0.02475377	      0.94536758	     -0.50560321	     29.39725051	      1.04184772	    -11.21291498	    -54.60799194	      9.37213324	     -2.61617819	     10.42599981	     -5.60641247	      0.87993245	    -24.33428417	     13.09156222	      4.28694254	     -8.61330128	     -1.89382575	     -3.23328916
